<svg width="413" height="115" viewBox="0 0 413 115" fill="none" xmlns="http://www.w3.org/2000/svg">
<path d="M126 100.479V47.5415H148.604C151.854 47.5415 154.604 48.0571 156.854 49.0832C159.115 50.1144 160.823 51.578 161.979 53.479C163.146 55.3696 163.729 57.604 163.729 60.1873C163.729 62.5207 163.156 64.5832 162.021 66.3748C160.896 68.1665 159.271 69.604 157.146 70.6873V71.4373C160.464 72.3123 163.026 73.8957 164.833 76.1873C166.651 78.479 167.562 81.2915 167.562 84.6248C167.562 89.6978 166.031 93.604 162.979 96.354C159.938 99.104 155.406 100.479 149.396 100.479H126ZM146.417 68.6457C151.292 68.6457 153.729 66.453 153.729 62.0623C153.729 59.828 153.125 58.1613 151.917 57.0623C150.719 55.953 148.885 55.3957 146.417 55.3957H136.458V68.6457H146.417ZM148.333 92.1873C154.109 92.1873 157 89.5728 157 84.3332C157 79.0728 154.109 76.4373 148.333 76.4373H136.458V92.1873H148.333Z" fill="black"/>
<path d="M189.186 101.229C184.686 101.229 181.363 100.01 179.228 97.5623C177.103 95.1196 176.04 91.604 176.04 87.0207V60.5415H186.061V85.7498C186.061 88.1821 186.582 89.9582 187.623 91.0832C188.675 92.2082 190.3 92.7707 192.498 92.7707C195.274 92.7707 197.436 91.8644 198.978 90.0415C200.53 88.2082 201.311 85.3436 201.311 81.4373V60.5415H211.332V100.479H201.707V94.604L200.936 94.4373C199.655 96.729 198.092 98.4373 196.248 99.5623C194.399 100.672 192.045 101.229 189.186 101.229Z" fill="black"/>
<path d="M236.818 101.229C233.651 101.229 230.849 100.469 228.422 98.9375C226.005 97.4115 224.109 95.099 222.734 92C221.359 88.8906 220.672 85.0625 220.672 80.5208C220.672 75.9688 221.37 72.1406 222.776 69.0417C224.193 65.9323 226.151 63.6146 228.651 62.0833C231.151 60.5573 234.036 59.7917 237.318 59.7917C239.802 59.7917 241.953 60.224 243.776 61.0833C245.609 61.9323 247.151 63.2604 248.401 65.0625L249.172 64.8958V44.5H259.193V100.479H249.172V95.2917L248.401 95.1667C247.286 97.0417 245.766 98.5208 243.839 99.6042C241.906 100.688 239.568 101.229 236.818 101.229ZM240.068 92.7292C242.901 92.7292 245.135 91.724 246.776 89.7083C248.411 87.6979 249.234 84.6354 249.234 80.5208C249.234 76.4271 248.411 73.3646 246.776 71.3333C245.135 69.3073 242.901 68.2917 240.068 68.2917C237.12 68.2917 234.87 69.2812 233.318 71.25C231.76 73.2083 230.984 76.3021 230.984 80.5208C230.984 84.7292 231.76 87.8229 233.318 89.7917C234.87 91.75 237.12 92.7292 240.068 92.7292Z" fill="black"/>
<path d="M284.677 101.229C281.511 101.229 278.709 100.469 276.281 98.9375C273.865 97.4115 271.969 95.099 270.594 92C269.219 88.8906 268.531 85.0625 268.531 80.5208C268.531 75.9688 269.229 72.1406 270.636 69.0417C272.052 65.9323 274.011 63.6146 276.511 62.0833C279.011 60.5573 281.896 59.7917 285.177 59.7917C287.662 59.7917 289.813 60.224 291.636 61.0833C293.469 61.9323 295.011 63.2604 296.261 65.0625L297.031 64.8958V44.5H307.052V100.479H297.031V95.2917L296.261 95.1667C295.146 97.0417 293.625 98.5208 291.698 99.6042C289.766 100.688 287.427 101.229 284.677 101.229ZM287.927 92.7292C290.761 92.7292 292.995 91.724 294.636 89.7083C296.271 87.6979 297.094 84.6354 297.094 80.5208C297.094 76.4271 296.271 73.3646 294.636 71.3333C292.995 69.3073 290.761 68.2917 287.927 68.2917C284.979 68.2917 282.729 69.2812 281.177 71.25C279.62 73.2083 278.844 76.3021 278.844 80.5208C278.844 84.7292 279.62 87.8229 281.177 89.7917C282.729 91.75 284.979 92.7292 287.927 92.7292Z" fill="black"/>
<path d="M323.558 55.7708C321.751 55.7708 320.277 55.224 319.141 54.125C318.001 53.0312 317.433 51.6146 317.433 49.875C317.433 48.1562 318.001 46.7448 319.141 45.6458C320.277 44.5521 321.751 44 323.558 44C324.766 44 325.839 44.2604 326.787 44.7708C327.73 45.2708 328.459 45.9688 328.975 46.8542C329.485 47.7292 329.745 48.7396 329.745 49.875C329.745 51 329.485 52.0156 328.975 52.9167C328.459 53.8073 327.73 54.5104 326.787 55.0208C325.839 55.5208 324.766 55.7708 323.558 55.7708ZM318.558 100.479V60.5417H328.6V100.479H318.558Z" fill="black"/>
<path d="M373.77 82.7707H348.104C348.395 86.2446 349.38 88.7707 351.062 90.354C352.755 91.9373 355.067 92.729 357.999 92.729C360.291 92.729 362.145 92.3071 363.562 91.4582C364.989 90.5988 366.135 89.3019 366.999 87.5623H367.77L374.416 91.8332C373.124 94.6248 371.156 96.8905 368.52 98.6248C365.895 100.364 362.385 101.229 357.999 101.229C353.859 101.229 350.291 100.453 347.291 98.8957C344.291 97.328 341.968 94.9946 340.333 91.8957C338.708 88.7863 337.895 84.9946 337.895 80.5207C337.895 75.9946 338.749 72.1769 340.458 69.0623C342.177 65.9373 344.499 63.6144 347.416 62.0832C350.333 60.5571 353.614 59.7915 357.27 59.7915C362.906 59.7915 367.229 61.2915 370.229 64.2915C373.239 67.2811 374.749 71.6665 374.749 77.4582C374.749 79.5571 374.677 81.1821 374.541 82.3332L373.77 82.7707ZM365.166 76.2915C365.067 73.2498 364.359 71.0363 363.041 69.6457C361.718 68.2603 359.796 67.5623 357.27 67.5623C352.197 67.5623 349.218 70.4738 348.333 76.2915H365.166Z" fill="black"/>
<path d="M396.406 101.229C393.667 101.229 391.167 100.906 388.906 100.271C386.641 99.6353 384.703 98.7603 383.094 97.6457C381.479 96.5207 380.292 95.2394 379.531 93.7915L385.115 87.7707H385.865C387.198 89.5623 388.766 90.9061 390.573 91.7915C392.375 92.6821 394.344 93.1248 396.469 93.1248C398.427 93.1248 399.896 92.7811 400.885 92.0832C401.87 91.3748 402.365 90.3748 402.365 89.0832C402.365 88.0728 402.01 87.2238 401.302 86.5415C400.594 85.8488 399.438 85.3071 397.844 84.9165L392.552 83.6457C388.594 82.703 385.703 81.2603 383.885 79.3123C382.062 77.3696 381.156 74.9061 381.156 71.9165C381.156 69.4321 381.786 67.2707 383.052 65.4373C384.328 63.604 386.115 62.2082 388.406 61.2498C390.708 60.2811 393.396 59.7915 396.469 59.7915C400.062 59.7915 403.042 60.3123 405.406 61.354C407.781 62.3853 409.625 63.7655 410.948 65.4998L405.594 71.2915H404.865C403.75 70.0415 402.5 69.1353 401.115 68.5623C399.74 67.979 398.188 67.6873 396.469 67.6873C392.51 67.6873 390.531 68.9165 390.531 71.3748C390.531 72.4165 390.896 73.2655 391.635 73.9165C392.37 74.5571 393.667 75.0832 395.531 75.4998L400.448 76.5832C404.5 77.4582 407.469 78.854 409.344 80.7707C411.219 82.6873 412.156 85.2655 412.156 88.4998C412.156 91.0311 411.521 93.2603 410.26 95.1873C409.01 97.1196 407.198 98.6144 404.823 99.6665C402.458 100.708 399.656 101.229 396.406 101.229Z" fill="black"/>
<mask id="mask0_248_1293" style="mask-type:luminance" maskUnits="userSpaceOnUse" x="0" y="42" width="99" height="73">
<path d="M0.25736 42.9297H98.2857V114.179H0.25736V42.9297Z" fill="white" stroke="white" stroke-width="0.426829"/>
</mask>
<g mask="url(#mask0_248_1293)">
<path d="M44.7852 114.238H44.5199C41.0735 114.181 35.8356 113.059 31.2732 111.592C28.9344 110.84 26.7827 110.001 25.1494 109.175C24.3325 108.762 23.6507 108.354 23.1416 107.966C22.6263 107.573 22.3131 107.218 22.1953 106.917L22.1953 106.917C21.8557 106.051 21.721 104.897 21.7165 103.572C21.712 102.25 21.8367 100.778 22.0039 99.2842C22.0958 98.4627 22.201 97.6329 22.3041 96.8192C22.5739 94.6905 22.8299 92.6712 22.7991 91.1933C22.6695 85.031 21.22 78.7467 18.0566 73.3891C16.0075 69.9184 13.5517 66.7132 11.1048 63.5196C10.8848 63.2326 10.665 62.9457 10.4456 62.6587C7.78089 59.1739 5.16952 55.6736 3.12469 51.8075C2.99931 51.5703 2.87177 51.3326 2.74378 51.094C1.9019 49.5245 1.04107 47.9196 0.654283 46.2266C0.571579 45.8616 0.496582 45.4617 0.502294 45.0795C0.507988 44.6985 0.593638 44.3544 0.814066 44.0833L0.814067 44.0833L0.814537 44.0827C1.15192 43.6648 1.66857 43.4952 2.23131 43.4952C2.63157 43.4952 3.04151 43.5805 3.39778 43.7167L3.39851 43.717C5.36524 44.4607 7.02786 45.9886 8.60094 47.4343C8.68333 47.51 8.76547 47.5855 8.8474 47.6606L8.8476 47.6608C10.6017 49.2655 12.2711 50.9304 13.9328 52.5877L13.9418 52.5966C15.6054 54.2558 17.2615 55.9072 18.9814 57.4756C22.4221 60.6131 26.1266 63.4264 30.689 65.327L30.689 65.3271C40.155 69.2666 50.636 69.9808 56.6697 69.9808C58.6597 69.9808 60.168 69.9028 61.0014 69.8356C62.7052 69.7022 64.4667 69.5739 66.0022 69.5739C66.398 69.5739 66.7738 69.5806 67.1285 69.6003L67.1674 69.6024L67.2045 69.5908C67.8492 69.3878 68.5112 69.1671 69.2013 68.9311L69.202 68.9309C74.2864 67.1715 85.7363 62.6527 92.8954 51.6905C93.5231 50.7299 94.5424 50.111 95.5045 50.111C96.1381 50.111 96.7587 50.3756 97.2545 51.0134L97.2546 51.0135C98.1171 52.1219 98.2367 53.6395 98.0258 55.2585C97.8504 56.6055 97.4522 57.9837 97.1007 59.2006C97.0304 59.4441 96.9619 59.6812 96.8974 59.9103C95.7443 63.9988 94.5402 67.3376 93.188 71.087C92.8801 71.9409 92.5645 72.816 92.2401 73.7261L92.24 73.7262C90.4397 78.7852 90.4565 86.3674 90.8272 93.0319C90.9631 95.4755 91.1473 97.8035 91.3088 99.8447C91.3678 100.591 91.4238 101.299 91.4733 101.96C91.5659 103.196 91.6356 104.268 91.6606 105.125C91.6858 105.989 91.6643 106.612 91.5839 106.963L91.5839 106.963C91.5669 107.037 91.5121 107.141 91.3956 107.274C91.2811 107.404 91.1187 107.549 90.9085 107.706C90.4884 108.02 89.8972 108.369 89.1694 108.738C87.715 109.474 85.7399 110.274 83.5567 111.015C79.185 112.497 74.0186 113.724 70.5684 113.724C69.3356 113.724 68.3548 113.568 67.7073 113.234L67.7071 113.234C67.5629 113.16 67.4395 113.08 67.3344 112.99L67.3324 112.989C67.2202 112.895 67.0878 112.668 66.9513 112.276C66.8189 111.895 66.6947 111.397 66.5765 110.806C66.3403 109.624 66.1331 108.097 65.93 106.451C65.8609 105.891 65.7922 105.317 65.723 104.739C65.387 101.93 65.0387 99.0188 64.5644 97.089L64.5643 97.0888C64.2469 95.8036 63.855 94.5064 63.3524 93.2588L63.3523 93.2585C62.7823 91.8492 62.0689 90.5023 61.1569 89.3013C60.3166 88.1944 59.305 87.214 58.0859 86.4277L58.0857 86.4276C57.1549 85.8287 56.2062 85.3085 55.2377 84.8533L55.0941 84.7858L54.9881 84.904C54.7144 85.2091 54.4446 85.526 54.1857 85.8548C53.541 86.6714 53.0152 87.5498 52.5718 88.4635L52.5717 88.4638C51.7073 90.2511 51.1695 92.1953 50.7479 94.1426L50.7479 94.1427C50.5412 95.1 50.3613 96.0608 50.1844 97.0052C50.1229 97.334 50.0617 97.6608 49.9999 97.9847L49.9999 97.9849C49.5167 100.528 49.2594 103.645 49.0301 106.423C49.0081 106.69 48.9864 106.953 48.9648 107.212C48.8408 108.697 48.7196 110.054 48.5688 111.138C48.4935 111.68 48.4112 112.151 48.3186 112.533C48.2258 112.915 48.1263 113.193 48.0227 113.366C48.015 113.377 48.0086 113.387 48.003 113.395C47.9876 113.418 47.9786 113.431 47.9667 113.445L47.9666 113.445L47.9619 113.451C47.7637 113.699 47.3949 113.9 46.8441 114.037C46.2982 114.173 45.6018 114.238 44.7852 114.238ZM41.4907 61.373C37.2958 61.373 33.89 57.9651 33.89 53.7724C33.89 49.5752 37.2958 46.1695 41.4907 46.1695C45.6855 46.1695 49.0913 49.5752 49.0913 53.7724C49.0913 57.9651 45.6855 61.373 41.4907 61.373ZM69.5902 61.5998C65.3953 61.5998 61.9873 58.1918 61.9873 53.9969C61.9873 49.8021 65.3952 46.3963 69.5902 46.3963C73.7852 46.3963 77.1931 49.8021 77.1931 53.9969C77.1931 58.1918 73.7851 61.5998 69.5902 61.5998Z" fill="#461E5C" stroke="black" stroke-width="0.426829"/>
<mask id="mask1_248_1293" style="mask-type:luminance" maskUnits="userSpaceOnUse" x="0" y="43" width="98" height="71">
<path d="M0.666748 43.3804H98.0001V114H0.666748V43.3804Z" fill="white"/>
</mask>
<g mask="url(#mask1_248_1293)">
<path d="M44.547 113.75C37.7085 113.75 23.1981 109.219 22.0939 106.401C20.6981 102.844 22.7554 94.8285 22.672 90.8389C22.547 84.7972 21.1251 78.6462 18.0314 73.4014C13.646 65.9795 7.36473 59.7868 3.31785 52.1357C2.39077 50.3753 1.30743 48.542 0.864726 46.5837C0.698059 45.8597 0.547017 44.9274 1.06264 44.292C1.44806 43.818 2.03139 43.6357 2.61993 43.6357C3.04702 43.6357 3.4741 43.7295 3.84389 43.8701C5.93244 44.6566 7.67202 46.318 9.28139 47.7972C16.2241 54.1462 21.8126 61.443 30.7397 65.1618C40.0262 69.0264 50.3179 69.7295 56.2501 69.7295C58.2085 69.7295 59.6876 69.6514 60.5054 69.5889C62.1824 69.4535 63.922 69.3285 65.4481 69.3285C65.8387 69.3285 66.2137 69.3337 66.5679 69.3545C67.1981 69.1566 67.8491 68.9378 68.5314 68.7035C73.5314 66.9795 84.7501 62.542 91.7658 51.8076C92.4116 50.8128 93.4793 50.1566 94.5106 50.1566C95.1981 50.1566 95.8751 50.443 96.4012 51.1253C98.2033 53.443 96.8387 57.391 96.0835 60.0732C94.6876 65.0316 93.2137 68.8701 91.4949 73.6982C87.9793 83.5785 91.5418 103.412 90.8543 106.417C90.4064 108.37 76.8126 113.245 69.9429 113.245C68.7189 113.245 67.7137 113.089 67.0262 112.735C66.8751 112.657 66.7397 112.568 66.6199 112.469C65.3491 111.412 64.9428 101.245 63.8231 96.693C63.5158 95.4378 63.1304 94.167 62.6408 92.9482C62.0835 91.5732 61.3908 90.266 60.5054 89.0993C59.6929 88.0264 58.7137 87.0785 57.5366 86.318C56.6251 85.7347 55.6981 85.2243 54.7554 84.7816C54.4845 85.0785 54.2241 85.3857 53.9689 85.7087C53.3491 86.5003 52.8335 87.3493 52.4064 88.2399C51.5626 89.9795 51.0366 91.8753 50.6251 93.7868C50.3491 95.0524 50.1251 96.3285 49.8856 97.568C48.8491 103.032 48.8751 111.209 47.9116 112.792C47.8856 112.828 47.8647 112.865 47.8387 112.896C47.3595 113.49 46.172 113.75 44.5418 113.75H44.547ZM41.297 61.6722C37.047 61.6722 33.5991 58.2191 33.5991 53.9691C33.5991 49.7191 37.047 46.2712 41.297 46.2712C45.547 46.2712 48.9949 49.7191 48.9949 53.9691C48.9949 58.2191 45.547 61.6722 41.297 61.6722ZM68.9793 61.891C64.7345 61.891 61.2814 58.443 61.2814 54.193C61.2814 49.943 64.7345 46.4951 68.9793 46.4951C73.2293 46.4951 76.6824 49.943 76.6824 54.193C76.6824 58.443 73.2293 61.891 68.9793 61.891Z" fill="#461E5C"/>
</g>
</g>
<mask id="mask2_248_1293" style="mask-type:luminance" maskUnits="userSpaceOnUse" x="0" y="0" width="91" height="38">
<path d="M0 0H90.9589V37.0229H0V0Z" fill="white"/>
</mask>
<g mask="url(#mask2_248_1293)">
<path d="M54.7148 0.156114C29.7764 -1.74016 7.55242 13.828 0.0273438 36.5455C9.68434 18.4319 29.3896 6.76306 51.169 8.41925C63.7226 9.37294 74.9224 14.606 83.4679 22.5735C85.2463 24.2297 88.063 24.0007 89.5769 22.0955C90.884 20.446 90.7484 18.094 89.2945 16.569C80.5112 7.33884 68.4222 1.19873 54.7148 0.156114Z" fill="#F56A00"/>
</g>
<mask id="mask3_248_1293" style="mask-type:luminance" maskUnits="userSpaceOnUse" x="86" y="21" width="20" height="19">
<path d="M86.9756 21.0854H105V39.2968H86.9756V21.0854Z" fill="white"/>
</mask>
<g mask="url(#mask3_248_1293)">
<path d="M97.4482 22.034L99.2178 26.4335C99.3178 26.6802 99.5335 26.8625 99.7958 26.9248L104.422 27.9585C105.082 28.1052 105.285 28.9456 104.767 29.3768L101.13 32.4202C100.925 32.5936 100.818 32.8537 100.843 33.1205L101.287 37.8423C101.35 38.5136 100.616 38.9649 100.047 38.607L96.0299 36.0905C95.8032 35.946 95.5208 35.9238 95.2718 36.0327L90.9213 37.9156C90.3011 38.1824 89.643 37.6244 89.8075 36.9708L90.9635 32.3713C91.0258 32.109 90.9613 31.8378 90.7857 31.6355L87.649 28.0763C87.2021 27.5717 87.5311 26.7736 88.2025 26.7269L92.9354 26.4046C93.2022 26.3846 93.4423 26.2356 93.5801 26.0067L95.9943 21.9273C96.3367 21.3471 97.197 21.4094 97.4504 22.0363L97.4482 22.034Z" fill="#F56A00"/>
</g>
</svg>
