<svg width="147" height="29" viewBox="0 0 147 29" fill="none" xmlns="http://www.w3.org/2000/svg">
<mask id="mask0_65_1291" style="mask-type:luminance" maskUnits="userSpaceOnUse" x="0" y="10" width="24" height="18">
<path d="M0.0612887 10.2168H23.3912V27.1735H0.0612887V10.2168Z" fill="white" stroke="white" stroke-width="0.101581"/>
</mask>
<g mask="url(#mask0_65_1291)">
<path d="M5.23516 25.4639C5.49745 26.134 8.90662 27.2075 10.5867 27.2383L10.536 27.1876H10.5956M5.23516 25.4639L10.6951 27.203L10.6946 27.2025L10.6592 27.2379V27.1882C10.659 27.1882 10.6588 27.1882 10.6587 27.1882C10.6379 27.1882 10.6169 27.188 10.5956 27.1876M5.23516 25.4639C5.01978 24.9148 5.14516 23.9255 5.25848 23.0315M5.23516 25.4639L5.25848 23.0315M10.5956 27.1876C9.77542 27.1742 8.52878 26.9071 7.4429 26.558C6.88629 26.3791 6.37421 26.1794 5.98551 25.9828C5.79107 25.8844 5.62883 25.7874 5.50766 25.695C5.38503 25.6015 5.31048 25.517 5.28246 25.4454L5.28244 25.4454C5.20163 25.2393 5.16958 24.9647 5.1685 24.6493C5.16743 24.3348 5.19711 23.9843 5.23689 23.6289C5.25878 23.4333 5.28381 23.2359 5.30835 23.0422C5.37257 22.5356 5.43348 22.055 5.42614 21.7033L5.42614 21.7033C5.39531 20.2367 5.05035 18.7411 4.29747 17.4661C3.8098 16.6401 3.22534 15.8773 2.64299 15.1172C2.59066 15.0489 2.53835 14.9806 2.48612 14.9123C1.85195 14.083 1.23047 13.2499 0.743813 12.3298C0.713976 12.2734 0.683623 12.2168 0.653165 12.16C0.452798 11.7865 0.247921 11.4045 0.155873 11.0016L0.106358 11.0129L0.155893 11.0017C0.136206 10.9148 0.118351 10.8196 0.119711 10.7286C0.121066 10.638 0.14145 10.5561 0.19391 10.4915L0.19391 10.4915L0.194022 10.4914C0.274317 10.392 0.397273 10.3516 0.531201 10.3516C0.626461 10.3516 0.724021 10.3719 0.808811 10.4043L0.808986 10.4044C1.27705 10.5814 1.67274 10.945 2.04712 11.289C2.06672 11.3071 2.08627 11.325 2.10577 11.3429L2.10582 11.343C2.52328 11.7249 2.92059 12.1211 3.31607 12.5155L3.31819 12.5176C3.71411 12.9125 4.10825 13.3055 4.51758 13.6788C5.33643 14.4255 6.21806 15.095 7.30387 15.5474L7.30388 15.5474C9.55669 16.4849 12.0511 16.6549 13.4871 16.6549C13.9607 16.6549 14.3198 16.6363 14.5181 16.6204L23.0609 14.2582M10.5956 27.1876H10.6587C10.853 27.1876 11.0187 27.1721 11.1486 27.1399C11.2797 27.1074 11.3675 27.0595 11.4147 27.0004L11.4158 26.999L11.4158 26.999C11.4186 26.9957 11.4208 26.9926 11.4245 26.9871C11.4258 26.9851 11.4273 26.9829 11.4291 26.9802C11.4538 26.9391 11.4775 26.873 11.4996 26.7819C11.5216 26.6909 11.5412 26.579 11.5591 26.45C11.595 26.1919 11.6238 25.8691 11.6533 25.5156C11.6585 25.4539 11.6637 25.3912 11.6689 25.3278C11.7235 24.6666 11.7847 23.9249 11.8997 23.3196L11.8997 23.3196C11.9144 23.2425 11.929 23.1647 11.9436 23.0865C11.9857 22.8617 12.0285 22.6331 12.0777 22.4052L12.0777 22.4052C12.178 21.9418 12.306 21.4791 12.5118 21.0537L12.5118 21.0536C12.6173 20.8362 12.7425 20.6271 12.8959 20.4327M11.9496 23.3291C11.9644 23.2517 11.979 23.1736 11.9936 23.0953C12.0357 22.8707 12.0783 22.643 12.1273 22.4159C12.2273 21.9541 12.3543 21.4959 12.5575 21.0758C12.6617 20.861 12.785 20.6552 12.9358 20.4642C12.9966 20.387 13.0601 20.3124 13.1246 20.2404C13.3532 20.3478 13.577 20.4706 13.7966 20.6118C14.0812 20.7954 14.3177 21.0245 14.5145 21.2837C14.7283 21.5652 14.896 21.8816 15.0304 22.2138C15.1489 22.508 15.2415 22.8143 15.3166 23.1186C15.4286 23.5745 15.5111 24.2633 15.5911 24.9318C15.7041 25.876 15.8122 26.7798 15.9922 26.9294C16.0208 26.9538 16.0536 26.9749 16.0906 26.994C16.2557 27.0792 16.4991 27.1162 16.7948 27.1162C18.454 27.1162 21.7384 25.939 21.8458 25.4676C21.8985 25.2375 21.848 24.5988 21.7814 23.7577C21.6381 21.9453 21.4203 19.1931 22.0003 17.5633C22.0774 17.3471 22.1524 17.139 22.2257 16.936C22.5475 16.0435 22.8348 15.2469 23.1098 14.272M11.9496 23.3291L7.3234 15.5005C9.56718 16.4343 12.0538 16.6041 13.4871 16.6041C13.9595 16.6041 14.3172 16.5856 14.514 16.5697C14.9193 16.538 15.3404 16.5073 15.7081 16.5073C15.8028 16.5073 15.8933 16.5089 15.979 16.5136C16.1319 16.4655 16.289 16.4131 16.453 16.357C17.6609 15.9391 20.3718 14.8682 22.0659 12.2742C22.2225 12.0345 22.4797 11.8753 22.7294 11.8753C22.896 11.8753 23.0585 11.9457 23.186 12.1097C23.5857 12.6234 23.3418 13.4678 23.1578 14.1045C23.1411 14.1622 23.1249 14.2181 23.1098 14.272M11.9496 23.3291C11.8351 23.9316 11.7741 24.6706 11.7195 25.3324C11.6544 26.1207 11.5984 26.7995 11.4718 27.0077L11.9496 23.3291ZM23.1098 14.272L23.0609 14.2582M23.1098 14.272L23.0609 14.2582C23.0609 14.2582 23.0609 14.2582 23.0609 14.2582M12.8959 20.4327L12.9355 20.464L12.8959 20.4328C12.8959 20.4328 12.8959 20.4328 12.8959 20.4327ZM12.8959 20.4327C12.9575 20.3545 13.0217 20.2791 13.0868 20.2065L13.1121 20.1784L13.1462 20.1944C13.3768 20.3028 13.6025 20.4266 13.824 20.5691L13.8241 20.5691C14.1142 20.7563 14.355 20.9896 14.555 21.253C14.772 21.5389 14.9418 21.8594 15.0774 22.1948L15.0775 22.1949C15.1971 22.4918 15.2904 22.8005 15.3659 23.1064L15.3659 23.1064C15.4788 23.5657 15.5617 24.2586 15.6417 24.927C15.6581 25.0646 15.6745 25.2012 15.6909 25.3344C15.7393 25.7261 15.7886 26.0897 15.8448 26.3709C15.8729 26.5116 15.9025 26.6302 15.934 26.7207C15.9665 26.8141 15.998 26.8682 16.0247 26.8904L16.0251 26.8908C16.0502 26.9121 16.0795 26.9312 16.1138 26.9488L16.1139 26.9489C16.268 27.0284 16.5014 27.0654 16.7948 27.0654C17.6159 27.0654 18.8455 26.7733 19.8859 26.4206C20.4055 26.2445 20.8756 26.054 21.2217 25.8788C21.3949 25.7911 21.5356 25.7079 21.6356 25.6331C21.6856 25.5957 21.7242 25.5613 21.7515 25.5303C21.7792 25.4987 21.7923 25.4741 21.7963 25.4563L21.7963 25.4563C21.8154 25.3727 21.8206 25.2246 21.8146 25.0189C21.8086 24.815 21.792 24.5599 21.77 24.2657C21.7582 24.1083 21.7449 23.9399 21.7308 23.7623C21.6924 23.2765 21.6486 22.7225 21.6162 22.1409C21.528 20.5548 21.524 18.7503 21.9525 17.5463L21.9525 17.5463C22.0297 17.3297 22.1048 17.1214 22.1781 16.9182C22.4999 16.0259 22.7864 15.2313 23.0609 14.2582M5.25848 23.0315C5.32247 22.5266 5.38262 22.0521 5.37536 21.7044L5.25848 23.0315ZM9.87457 14.6064C8.87624 14.6064 8.06568 13.7953 8.06568 12.7975C8.06568 11.7986 8.87624 10.988 9.87457 10.988C10.8729 10.988 11.6835 11.7986 11.6835 12.7975C11.6835 13.7953 10.8729 14.6064 9.87457 14.6064ZM16.562 14.6603C15.5637 14.6603 14.7526 13.8492 14.7526 12.8509C14.7526 11.8526 15.5636 11.042 16.562 11.042C17.5604 11.042 18.3714 11.8526 18.3714 12.8509C18.3714 13.8492 17.5604 14.6603 16.562 14.6603Z" fill="#1C3720" stroke="black" stroke-width="0.101581"/>
</g>
<mask id="mask1_65_1291" style="mask-type:luminance" maskUnits="userSpaceOnUse" x="0" y="0" width="22" height="9">
<path d="M0 0H21.6474V8.81113H0V0Z" fill="white"/>
</mask>
<g mask="url(#mask1_65_1291)">
<path d="M13.0215 0.0371537C7.08636 -0.414143 1.79725 3.29093 0.00634766 8.69749C2.30463 4.38664 6.9943 1.60955 12.1776 2.00371C15.1653 2.23068 17.8307 3.47611 19.8644 5.37229C20.2877 5.76645 20.958 5.71195 21.3183 5.25854C21.6294 4.86597 21.5972 4.30622 21.2511 3.94327C19.1608 1.74658 16.2837 0.285287 13.0215 0.0371537Z" fill="#4CAF4F"/>
</g>
<mask id="mask2_65_1291" style="mask-type:luminance" maskUnits="userSpaceOnUse" x="20" y="5" width="5" height="5">
<path d="M20.6992 5.01807H24.9889V9.35221H20.6992V5.01807Z" fill="white"/>
</mask>
<g mask="url(#mask2_65_1291)">
<path d="M23.1917 5.24375L23.6128 6.29078C23.6366 6.34951 23.688 6.39289 23.7504 6.40771L24.8514 6.65372C25.0085 6.68864 25.0567 6.88863 24.9334 6.99127L24.0678 7.71557C24.0192 7.75683 23.9938 7.81873 23.9996 7.88222L24.1054 9.00597C24.1202 9.16575 23.9456 9.27315 23.8102 9.18797L22.8541 8.58906C22.8002 8.55467 22.733 8.54938 22.6737 8.5753L21.6383 9.02343C21.4907 9.08691 21.3341 8.95412 21.3733 8.79857L21.6484 7.70393C21.6632 7.6415 21.6479 7.57695 21.6061 7.5288L20.8595 6.68176C20.7532 6.56167 20.8315 6.37173 20.9913 6.36062L22.1177 6.2839C22.1812 6.27914 22.2383 6.24369 22.2711 6.1892L22.8457 5.21836C22.9272 5.08027 23.1319 5.09508 23.1922 5.24428L23.1917 5.24375Z" fill="#4CAF4F"/>
</g>
<path d="M35.0136 27.8369V6.7105H43.1011C44.6278 6.7105 45.8966 6.95119 46.9076 7.43259C47.9254 7.90711 48.6853 8.55699 49.1873 9.38225C49.6962 10.2075 49.9507 11.1428 49.9507 12.1881C49.9507 13.0477 49.7856 13.7836 49.4555 14.3956C49.1254 15.0008 48.6818 15.4925 48.1248 15.8708C47.5678 16.249 46.9454 16.5207 46.2577 16.6857V16.892C47.0073 16.9333 47.7259 17.1637 48.4136 17.5832C49.1082 17.9958 49.6756 18.5804 50.1157 19.3368C50.5559 20.0933 50.7759 21.008 50.7759 22.0808C50.7759 23.1742 50.5111 24.1577 49.9816 25.0311C49.4521 25.8976 48.6543 26.5818 47.5884 27.0839C46.5224 27.5859 45.1814 27.8369 43.5653 27.8369H35.0136ZM38.8407 24.6391H42.9567C44.3458 24.6391 45.3465 24.3743 45.9585 23.8448C46.5775 23.3084 46.8869 22.6206 46.8869 21.7816C46.8869 21.1558 46.7322 20.5919 46.4227 20.0899C46.1133 19.581 45.6731 19.1821 45.1023 18.8933C44.5315 18.5975 43.8507 18.4497 43.0598 18.4497H38.8407V24.6391ZM38.8407 15.6954H42.6266C43.2868 15.6954 43.8816 15.5751 44.4112 15.3344C44.9407 15.0868 45.3568 14.7395 45.6594 14.2925C45.9688 13.8386 46.1236 13.3022 46.1236 12.6832C46.1236 11.8649 45.8347 11.1909 45.2571 10.6614C44.6863 10.1318 43.8369 9.86708 42.7091 9.86708H38.8407V15.6954ZM64.0392 21.173V11.9921H67.7735V27.8369H64.1527V25.0207H63.9877C63.6301 25.9079 63.0421 26.6334 62.2237 27.1973C61.4122 27.7613 60.4116 28.0432 59.2218 28.0432C58.1834 28.0432 57.2653 27.8128 56.4676 27.3521C55.6767 26.8844 55.0578 26.207 54.6108 25.3199C54.1637 24.4259 53.9402 23.3462 53.9402 22.0808V11.9921H57.6745V21.5031C57.6745 22.5072 57.9496 23.3049 58.4997 23.8963C59.0499 24.4878 59.772 24.7835 60.666 24.7835C61.2162 24.7835 61.7492 24.6494 62.265 24.3812C62.7807 24.113 63.2037 23.7141 63.5338 23.1846C63.8708 22.6482 64.0392 21.9776 64.0392 21.173ZM77.4934 28.1154C76.2487 28.1154 75.1346 27.7957 74.1511 27.1561C73.1677 26.5165 72.3906 25.5881 71.8198 24.3709C71.249 23.1536 70.9636 21.675 70.9636 19.9351C70.9636 18.1746 71.2525 16.6892 71.8301 15.4788C72.4147 14.2615 73.2021 13.3434 74.1924 12.7245C75.1827 12.0987 76.2865 11.7858 77.5037 11.7858C78.4321 11.7858 79.1955 11.944 79.7938 12.2603C80.3921 12.5698 80.8666 12.9446 81.2174 13.3847C81.5681 13.818 81.8397 14.2272 82.0323 14.6123H82.187V6.7105H85.9316V27.8369H82.2592V25.3405H82.0323C81.8397 25.7256 81.5612 26.1348 81.1967 26.5681C80.8322 26.9945 80.3508 27.359 79.7525 27.6615C79.1542 27.9641 78.4012 28.1154 77.4934 28.1154ZM78.5353 25.0517C79.3262 25.0517 80.0001 24.8385 80.5572 24.4121C81.1142 23.9789 81.5371 23.3771 81.826 22.6069C82.1148 21.8367 82.2592 20.9392 82.2592 19.9145C82.2592 18.8898 82.1148 17.9992 81.826 17.2428C81.544 16.4863 81.1245 15.8983 80.5675 15.4788C80.0173 15.0593 79.3399 14.8495 78.5353 14.8495C77.7032 14.8495 77.0086 15.0662 76.4515 15.4994C75.8945 15.9327 75.475 16.531 75.193 17.2943C74.9111 18.0577 74.7701 18.9311 74.7701 19.9145C74.7701 20.9048 74.9111 21.7885 75.193 22.5656C75.4819 23.3359 75.9048 23.9445 76.4618 24.3915C77.0258 24.8316 77.7169 25.0517 78.5353 25.0517ZM95.7908 28.1154C94.546 28.1154 93.4319 27.7957 92.4485 27.1561C91.4651 26.5165 90.688 25.5881 90.1172 24.3709C89.5464 23.1536 89.261 21.675 89.261 19.9351C89.261 18.1746 89.5498 16.6892 90.1275 15.4788C90.712 14.2615 91.4995 13.3434 92.4898 12.7245C93.4801 12.0987 94.5838 11.7858 95.8011 11.7858C96.7295 11.7858 97.4928 11.944 98.0912 12.2603C98.6895 12.5698 99.164 12.9446 99.5147 13.3847C99.8654 13.818 100.137 14.2272 100.33 14.6123H100.484V6.7105H104.229V27.8369H100.557V25.3405H100.33C100.137 25.7256 99.8586 26.1348 99.4941 26.5681C99.1296 26.9945 98.6482 27.359 98.0499 27.6615C97.4516 27.9641 96.6985 28.1154 95.7908 28.1154ZM96.8326 25.0517C97.6235 25.0517 98.2975 24.8385 98.8545 24.4121C99.4116 23.9789 99.8345 23.3771 100.123 22.6069C100.412 21.8367 100.557 20.9392 100.557 19.9145C100.557 18.8898 100.412 17.9992 100.123 17.2428C99.8414 16.4863 99.4219 15.8983 98.8648 15.4788C98.3147 15.0593 97.6373 14.8495 96.8326 14.8495C96.0005 14.8495 95.3059 15.0662 94.7489 15.4994C94.1918 15.9327 93.7723 16.531 93.4904 17.2943C93.2084 18.0577 93.0674 18.9311 93.0674 19.9145C93.0674 20.9048 93.2084 21.7885 93.4904 22.5656C93.7792 23.3359 94.2022 23.9445 94.7592 24.3915C95.3231 24.8316 96.0143 25.0517 96.8326 25.0517ZM108.208 27.8369V11.9921H111.942V27.8369H108.208ZM110.086 9.74329C109.494 9.74329 108.985 9.5473 108.559 9.1553C108.133 8.75643 107.919 8.27847 107.919 7.72143C107.919 7.15751 108.133 6.67955 108.559 6.28755C108.985 5.88868 109.494 5.68925 110.086 5.68925C110.684 5.68925 111.193 5.88868 111.612 6.28755C112.039 6.67955 112.252 7.15751 112.252 7.72143C112.252 8.27847 112.039 8.75643 111.612 9.1553C111.193 9.5473 110.684 9.74329 110.086 9.74329ZM122.797 28.1464C121.208 28.1464 119.837 27.8163 118.681 27.1561C117.533 26.489 116.649 25.5468 116.03 24.3296C115.411 23.1055 115.102 21.6647 115.102 20.0073C115.102 18.3775 115.411 16.947 116.03 15.716C116.656 14.4782 117.529 13.5154 118.65 12.8277C119.771 12.1331 121.088 11.7858 122.601 11.7858C123.578 11.7858 124.499 11.944 125.366 12.2603C126.239 12.5698 127.009 13.0512 127.676 13.7045C128.35 14.3578 128.88 15.1899 129.265 16.2009C129.65 17.2049 129.843 18.4015 129.843 19.7907V20.9358H116.855V18.4187H126.263C126.256 17.7035 126.102 17.0674 125.799 16.5103C125.496 15.9464 125.073 15.5029 124.53 15.1796C123.994 14.8564 123.368 14.6948 122.653 14.6948C121.889 14.6948 121.219 14.8805 120.641 15.2518C120.063 15.6163 119.613 16.0977 119.29 16.696C118.973 17.2875 118.812 17.9373 118.805 18.6457V20.8429C118.805 21.7644 118.973 22.5553 119.31 23.2155C119.647 23.8688 120.118 24.3709 120.724 24.7216C121.329 25.0654 122.037 25.2374 122.849 25.2374C123.392 25.2374 123.884 25.1617 124.324 25.0104C124.764 24.8523 125.146 24.6219 125.469 24.3193C125.792 24.0167 126.036 23.6419 126.201 23.1949L129.688 23.5869C129.468 24.5084 129.048 25.313 128.429 26.0007C127.817 26.6816 127.033 27.2111 126.077 27.5893C125.122 27.9607 124.028 28.1464 122.797 28.1464ZM145.525 16.1802L142.121 16.5516C142.025 16.2078 141.856 15.8845 141.615 15.5819C141.382 15.2793 141.065 15.0352 140.666 14.8495C140.267 14.6638 139.779 14.571 139.202 14.571C138.424 14.571 137.771 14.7395 137.242 15.0765C136.719 15.4135 136.461 15.8501 136.468 16.3866C136.461 16.8473 136.63 17.2221 136.973 17.511C137.324 17.7998 137.902 18.0371 138.706 18.2227L141.409 18.8004C142.908 19.1236 144.022 19.636 144.751 20.3374C145.487 21.0389 145.859 21.957 145.865 23.0917C145.859 24.0889 145.566 24.9692 144.989 25.7325C144.418 26.489 143.624 27.0804 142.606 27.5068C141.588 27.9332 140.419 28.1464 139.098 28.1464C137.159 28.1464 135.598 27.7406 134.415 26.9291C133.232 26.1108 132.527 24.9726 132.3 23.5147L135.942 23.1639C136.107 23.8791 136.458 24.419 136.994 24.7835C137.53 25.148 138.228 25.3302 139.088 25.3302C139.975 25.3302 140.687 25.148 141.223 24.7835C141.767 24.419 142.038 23.9686 142.038 23.4321C142.038 22.9783 141.863 22.6034 141.512 22.3077C141.168 22.012 140.632 21.7851 139.903 21.6269L137.2 21.0595C135.68 20.7432 134.556 20.2102 133.827 19.4606C133.098 18.7041 132.737 17.7482 132.744 16.5929C132.737 15.6163 133.002 14.7704 133.538 14.0552C134.082 13.3331 134.835 12.7761 135.797 12.3841C136.767 11.9852 137.885 11.7858 139.15 11.7858C141.007 11.7858 142.468 12.1812 143.534 12.9721C144.607 13.763 145.271 14.8323 145.525 16.1802Z" fill="black"/>
</svg>
